<?xml version="1.0" encoding="UTF-8"?>
<!-- (c) ammap.com | SVG weather icons -->
<svg width="49.16" height="35.8" version="1.1" xmlns="http://www.w3.org/2000/svg" viewBox="5 2.2 49.16 35.8">
  <defs>
    <filter id="blur" x="-.20655" y="-.21122" width="1.403" height="1.4997">
      <feGaussianBlur in="SourceAlpha" stdDeviation="3" />
      <feOffset dx="0" dy="4" result="offsetblur" />
      <feComponentTransfer>
        <feFuncA slope="0.05" type="linear" />
      </feComponentTransfer>
      <feMerge>
        <feMergeNode />
        <feMergeNode in="SourceGraphic" />
      </feMerge>
    </filter>
  </defs>
  <g transform="translate(16,-2)" filter="url(#blur)">
    <g transform="matrix(.8 0 0 .8 16 4)">
      <g class="am-weather-moon-star-1">
        <polygon points="1.5 3.3 2.7 2.7 3.3 1.5 4 2.7 5.2 3.3 4 4 3.3 5.2 2.7 4" fill="#ffc04a"
          stroke-miterlimit="10" />
      </g>
      <g class="am-weather-moon-star-2">
        <polygon transform="translate(20,10)" points="1.5 3.3 2.7 2.7 3.3 1.5 4 2.7 5.2 3.3 4 4 3.3 5.2 2.7 4"
          fill="#ffc04a" stroke-miterlimit="10" />
      </g>
      <g class="am-weather-moon">
        <path
          d="m14.5 13.2c0-3.7 2-6.9 5-8.7-1.5-0.9-3.2-1.3-5-1.3-5.5 0-10 4.5-10 10s4.5 10 10 10c1.8 0 3.5-0.5 5-1.3-3-1.7-5-5-5-8.7z"
          fill="#ffc04a" stroke="#ffc04a" stroke-linejoin="round" stroke-width="2" />
      </g>
    </g>
    <g class="am-weather-fog" transform="translate(-10,20)" fill="none" stroke="#c6deff" stroke-linecap="round"
      stroke-width="2">
      <line class="am-weather-fog-1" y1="0" y2="0" x1="1" x2="37" stroke-dasharray="3, 5, 17, 5, 7" />
      <line class="am-weather-fog-2" y1="5" y2="5" x1="9" x2="33" stroke-dasharray="11, 7, 15" />
      <line class="am-weather-fog-3" y1="10" y2="10" x1="5" x2="40" stroke-dasharray="11, 7, 3, 5, 9" />
      <line class="am-weather-fog-4" y1="15" y2="15" x1="7" x2="42" stroke-dasharray="13, 5, 9, 5, 3" />
    </g>
  </g>
</svg>